<?xml version="1.0" standalone="no"?>
<!DOCTYPE svg PUBLIC "-//W3C//DTD SVG 20010904//EN"
 "http://www.w3.org/TR/2001/REC-SVG-20010904/DTD/svg10.dtd">
<svg version="1.0" xmlns="http://www.w3.org/2000/svg"
 width="1024.000000pt" height="1024.000000pt" viewBox="0 0 1024.000000 1024.000000"
 preserveAspectRatio="xMidYMid meet">
<metadata>
Created by potrace 1.15, written by Peter Selinger 2001-2017
</metadata>
<g transform="translate(0.000000,1024.000000) scale(0.100000,-0.100000)"
fill="#000000" stroke="none">
<path d="M4665 10225 c-539 -51 -1038 -173 -1509 -370 -1369 -570 -2427 -1704
-2896 -3105 -130 -387 -209 -768 -245 -1180 -20 -229 -20 -671 0 -900 100
-1144 578 -2215 1358 -3045 298 -317 585 -560 934 -789 737 -484 1559 -762
2441 -827 208 -15 736 -7 925 15 633 71 1198 239 1757 521 681 344 1265 825
1746 1440 99 127 306 435 389 579 380 663 606 1403 666 2178 15 207 7 743 -16
933 -122 1037 -513 1949 -1176 2746 -133 159 -459 485 -618 618 -528 439
-1099 755 -1735 960 -330 107 -629 170 -1017 217 -184 22 -810 28 -1004 9z
m365 -624 l0 -429 -117 -6 c-158 -10 -363 -33 -503 -58 -63 -11 -121 -21 -129
-22 -11 -1 -39 104 -114 412 -55 227 -97 416 -93 419 11 11 235 52 401 73 171
22 352 36 478 39 l77 1 0 -429z m431 419 c199 -16 429 -46 600 -80 84 -16 153
-31 155 -32 3 -4 -202 -827 -208 -834 -3 -2 -45 5 -94 16 -157 34 -530 80
-650 80 l-24 0 0 430 0 430 43 0 c24 0 104 -5 178 -10z m-1505 -575 c57 -225
102 -411 100 -412 -1 -1 -56 -18 -121 -38 -156 -48 -325 -111 -473 -178 l-119
-54 -197 373 c-108 204 -196 376 -196 381 0 10 186 97 354 164 102 42 439 157
501 172 47 11 46 14 151 -408z m2661 354 c195 -63 440 -159 601 -236 l121 -58
-205 -381 -206 -382 -102 48 c-140 66 -284 123 -456 181 -124 41 -145 51 -143
68 2 19 189 774 198 799 7 19 22 16 192 -39z m-3662 -754 c107 -204 195 -373
195 -376 0 -3 -54 -39 -121 -79 -128 -78 -306 -201 -430 -299 l-76 -60 -259
292 c-143 160 -270 305 -283 320 l-25 29 35 30 c67 57 309 237 400 299 126 84
352 220 362 216 4 -1 95 -169 202 -372z m4678 294 c248 -150 681 -465 674
-492 -4 -14 -559 -637 -567 -637 -5 0 -60 41 -122 91 -101 81 -384 276 -468
322 -17 9 -30 21 -28 27 11 33 395 749 401 750 4 0 54 -28 110 -61z m-2623
-823 l0 -433 -97 -7 c-299 -22 -610 -91 -876 -197 -55 -21 -101 -38 -102 -37
-8 9 -375 781 -373 783 2 1 59 25 128 53 306 123 624 206 940 246 170 22 182
23 288 24 l92 2 0 -434z m631 405 c251 -36 462 -86 692 -163 129 -43 337 -124
350 -137 4 -4 -76 -177 -177 -385 -102 -208 -187 -383 -189 -389 -2 -6 -46 6
-108 30 -283 110 -546 171 -836 195 l-143 12 0 435 0 434 138 -6 c75 -4 198
-16 273 -26z m-3557 -519 l277 -313 -103 -107 c-119 -123 -265 -291 -340 -392
-29 -39 -57 -70 -63 -69 -15 1 -688 472 -692 484 -13 41 611 746 636 719 5 -5
133 -150 285 -322z m6807 -142 c155 -187 223 -280 211 -292 -6 -6 -165 -117
-353 -248 l-344 -237 -49 66 c-92 122 -199 245 -327 376 l-128 130 287 323
287 323 160 -163 c88 -90 203 -215 256 -278z m-5335 -121 c101 -210 184 -383
184 -384 0 -2 -51 -33 -114 -69 -227 -132 -427 -288 -625 -490 -111 -112 -126
-125 -143 -114 -56 40 -657 524 -658 531 0 5 84 93 188 196 206 206 384 354
597 496 138 92 375 228 383 221 2 -3 86 -176 188 -387z m3617 220 c271 -171
547 -402 758 -633 60 -65 109 -122 109 -127 0 -4 -151 -128 -335 -274 l-335
-267 -138 139 c-197 199 -370 334 -602 473 l-126 75 189 391 190 391 91 -50
c50 -27 140 -81 199 -118z m-1660 -513 c613 -99 1131 -360 1552 -781 420 -421
683 -941 780 -1550 23 -137 31 -500 15 -651 -65 -637 -327 -1203 -769 -1658
-460 -473 -1052 -759 -1715 -826 -150 -16 -514 -8 -649 14 -614 100 -1129 359
-1552 781 -423 423 -682 939 -782 1560 -25 153 -25 622 0 773 102 620 360
1135 782 1557 439 439 995 710 1625 791 143 18 578 12 713 -10z m-4125 -270
c331 -230 342 -239 329 -260 -98 -150 -230 -396 -303 -562 l-39 -90 -400 149
c-220 83 -401 151 -403 153 -14 10 187 421 295 604 125 211 157 259 168 251 5
-4 164 -115 353 -245z m7947 54 c85 -142 255 -475 313 -616 l30 -71 -392 -148
c-215 -81 -396 -150 -402 -152 -5 -2 -25 31 -44 74 -56 130 -185 382 -253 493
l-64 104 351 243 c271 187 354 239 362 230 7 -7 51 -77 99 -157z m-6913 -474
l325 -259 -55 -76 c-159 -221 -302 -510 -392 -787 l-42 -131 -97 22 c-53 13
-240 56 -416 96 -176 40 -324 75 -328 79 -11 9 64 247 130 415 110 281 274
584 441 816 65 91 79 105 92 96 9 -7 163 -129 342 -271z m5838 165 c218 -306
419 -716 529 -1081 23 -74 41 -140 41 -146 0 -6 -188 -53 -422 -106 l-423 -95
-46 141 c-87 268 -196 494 -345 718 l-92 137 336 266 c184 146 338 265 343
265 4 0 40 -44 79 -99z m-7300 -728 c184 -69 336 -127 337 -127 1 -1 -17 -62
-41 -136 -47 -145 -107 -394 -127 -525 -6 -44 -13 -81 -14 -83 -1 -1 -192 20
-425 48 -232 27 -424 50 -427 50 -14 0 50 332 103 540 20 74 55 197 80 272
l45 137 67 -25 c37 -14 218 -82 402 -151z m8843 0 c26 -82 60 -200 77 -263 50
-194 112 -530 97 -530 -2 0 -195 -22 -427 -50 -232 -27 -424 -50 -426 -50 -2
0 -4 12 -4 28 0 53 -69 369 -116 527 -25 88 -47 166 -48 174 -1 9 126 62 389
161 215 82 395 148 401 149 6 1 32 -65 57 -146z m-8000 -803 c387 -89 408 -95
403 -114 -15 -65 -37 -256 -45 -396 -11 -179 -1 -413 24 -582 9 -61 15 -111
13 -113 -2 -1 -185 -44 -408 -94 -223 -51 -412 -94 -421 -97 -14 -4 -19 7 -28
59 -51 291 -69 591 -53 864 11 183 36 393 63 521 8 42 14 53 27 50 10 -3 201
-47 425 -98z m7105 -42 c37 -231 46 -356 46 -618 0 -261 -8 -371 -45 -613 -21
-131 -23 -138 -43 -133 -11 2 -201 46 -421 97 -220 50 -402 93 -404 95 -2 2 4
53 13 113 42 289 42 595 0 880 -9 62 -14 114 -12 117 4 3 810 189 839 193 4 1
16 -59 27 -131z m-8248 -188 c233 -28 425 -52 427 -54 2 -1 -1 -88 -6 -192 -6
-116 -6 -262 0 -378 5 -104 7 -191 5 -193 -5 -6 -847 -106 -851 -101 -13 12
-27 405 -22 598 6 194 16 370 22 370 1 0 192 -23 425 -50z m9366 -292 c5 -152
2 -310 -6 -440 -6 -112 -13 -204 -14 -205 0 -1 -186 21 -411 48 -226 27 -417
49 -425 49 -13 0 -15 49 -15 383 l0 383 425 50 425 50 7 -41 c4 -22 11 -147
14 -277z m-8891 -858 c22 -132 83 -382 128 -522 l34 -108 -51 -19 c-705 -265
-750 -281 -758 -269 -16 25 -91 275 -133 443 -40 157 -95 434 -95 474 0 15 51
23 423 67 232 28 425 48 428 45 3 -4 14 -53 24 -111z m8440 51 l400 -47 -3
-45 c-8 -127 -102 -524 -183 -776 l-40 -122 -67 25 c-37 14 -218 82 -402 151
-184 69 -336 126 -337 127 -1 1 17 62 41 136 46 142 106 392 127 523 11 74 13
77 38 77 14 -1 206 -22 426 -49z m-7191 -484 c71 -172 196 -400 296 -541 22
-32 40 -62 38 -66 -2 -5 -153 -128 -335 -274 l-333 -266 -53 72 c-182 246
-378 620 -490 933 -43 121 -111 345 -106 349 2 2 193 46 424 98 l420 95 51
-156 c28 -86 67 -196 88 -244z m6056 288 c212 -49 388 -91 393 -95 14 -12 -69
-276 -155 -490 -101 -250 -287 -589 -431 -782 l-57 -78 -339 271 -338 271 81
122 c156 234 256 443 348 722 l53 161 30 -7 c16 -4 203 -47 415 -95z m-7040
-742 c42 -105 177 -366 254 -493 41 -69 72 -128 68 -132 -14 -12 -677 -470
-688 -475 -13 -5 -94 119 -199 302 -98 172 -275 541 -263 550 5 3 793 304 799
305 3 0 16 -26 29 -57z m7930 -120 c184 -69 336 -127 338 -128 7 -6 -65 -167
-147 -330 -77 -153 -244 -442 -290 -504 l-18 -24 -349 243 c-192 133 -350 244
-351 245 -2 1 34 62 78 136 79 130 269 502 269 526 0 8 22 4 68 -13 37 -14
218 -82 402 -151z m-6070 -593 c112 -89 298 -216 399 -271 34 -19 61 -37 61
-40 0 -4 -66 -144 -146 -311 -81 -166 -164 -340 -185 -386 l-39 -82 -50 25
c-229 116 -553 349 -795 572 -115 106 -320 325 -320 342 0 5 150 128 334 275
l333 265 152 -152 c83 -85 198 -191 256 -237z m4788 -161 c2 -5 -90 -103 -205
-218 -216 -217 -371 -347 -578 -487 -126 -86 -361 -224 -379 -224 -6 0 -95
176 -197 390 l-187 389 72 40 c244 134 513 348 726 576 l74 80 336 -268 c184
-148 336 -273 338 -278z m690 -160 c191 -133 349 -243 351 -245 8 -7 -164
-229 -278 -359 -95 -109 -284 -305 -320 -334 l-39 -31 -258 292 c-141 161
-268 305 -282 320 l-25 27 109 113 c121 125 263 288 339 390 28 37 51 67 53
68 2 0 159 -109 350 -241z m-6794 116 c103 -130 303 -352 365 -405 40 -34 42
-39 30 -57 -27 -38 -551 -623 -558 -623 -13 0 -296 293 -387 401 -101 118
-244 304 -244 316 1 12 683 483 696 480 6 -1 50 -51 98 -112z m2308 -319 c215
-65 447 -108 656 -122 l102 -7 0 -433 0 -434 -77 0 c-272 0 -714 86 -1061 204
-84 29 -322 123 -330 130 -1 2 52 115 119 252 67 137 152 313 189 391 l68 142
110 -44 c61 -25 161 -60 224 -79z m2247 -272 c110 -229 180 -388 175 -394 -16
-15 -168 -77 -318 -129 -332 -115 -697 -184 -1073 -204 l-63 -3 0 436 0 437
98 7 c135 10 295 33 436 62 127 27 389 108 477 148 30 14 61 25 69 25 10 0 77
-129 199 -385z m1527 -333 l267 -305 -39 -34 c-191 -165 -733 -527 -756 -504
-7 7 -300 558 -369 694 l-29 57 88 52 c129 77 334 218 442 304 89 71 95 74
111 58 9 -10 137 -155 285 -322z m-5379 238 c114 -89 348 -248 448 -304 28
-16 51 -29 53 -31 3 -2 -387 -744 -398 -757 -21 -24 -518 312 -755 510 l-38
31 19 24 c36 46 546 618 550 618 3 0 57 -41 121 -91z m4468 -817 c108 -205
195 -375 194 -376 -12 -11 -168 -84 -289 -136 -130 -56 -515 -190 -585 -204
l-31 -7 -102 417 c-56 229 -101 418 -99 420 1 2 56 19 121 39 134 40 381 136
501 194 44 21 83 36 86 32 4 -3 96 -174 204 -379z m-3630 315 c134 -60 357
-143 483 -178 48 -14 82 -29 82 -37 0 -16 -200 -815 -206 -821 -6 -7 -213 56
-369 111 -148 53 -377 149 -476 199 l-59 29 16 33 c41 79 320 608 351 665 20
36 40 61 46 58 7 -2 66 -29 132 -59z m2609 -670 c54 -225 94 -412 90 -417 -10
-8 -169 -40 -324 -65 -128 -20 -347 -42 -503 -51 l-127 -7 2 434 3 434 126 7
c161 8 362 33 509 62 63 12 118 20 121 17 3 -3 49 -190 103 -414z m-1681 388
c163 -29 393 -55 483 -55 34 0 76 -3 93 -6 l31 -6 0 -429 0 -429 -42 0 c-80 0
-322 20 -478 40 -136 17 -429 68 -439 76 -4 3 199 834 205 834 2 0 68 -11 147
-25z"/>
</g>
</svg>
